<svg width="142" height="142" viewBox="0 0 142 142" fill="none" xmlns="http://www.w3.org/2000/svg">
<rect width="142" height="142" rx="71" fill="#FF5E16"/>
<path d="M58.0482 96.184C54.1453 98.6383 48.5603 96.5821 47.871 91.0011C47.5955 91.0011 47.3097 91.0011 47.0235 91.0011C43.6268 91.0011 40.2301 91.0057 36.8339 90.9999C33.8924 90.9945 31.5545 88.698 31.5234 85.7968C31.492 82.8537 33.8046 80.4909 36.7717 80.4377C37.1644 80.4306 37.5571 80.4367 37.9316 80.4367C38.333 78.3652 38.719 76.3736 39.1188 74.3106C38.9332 74.2948 38.7136 74.2606 38.4941 74.26C36.7958 74.2554 35.0974 74.2631 33.3991 74.2551C32.2964 74.2499 31.5044 73.5599 31.4447 72.5764C31.3826 71.5584 32.1212 70.7393 33.2839 70.7099C35.4052 70.6564 37.5294 70.662 39.6515 70.6932C40.2471 70.702 40.5284 70.5109 40.7703 69.9618C41.3958 68.5407 42.1095 67.1583 42.8278 65.6783C42.496 65.6783 42.2159 65.6783 41.9355 65.6783C37.0265 65.6785 32.117 65.6808 27.208 65.6774C25.9935 65.6766 25.2222 65.0495 25.1571 64.034C25.0867 62.9313 25.839 62.1546 27.0183 62.1524C30.8661 62.1452 34.7138 62.1499 38.5616 62.15C40.6046 62.15 42.6484 62.1706 44.691 62.1286C45.0236 62.1217 45.4345 61.9156 45.6669 61.6679C47.0964 60.1427 48.4849 58.5792 49.9624 56.9449C49.6845 56.9449 49.4157 56.9449 49.1473 56.9449C43.6807 56.9447 38.2141 56.9476 32.7479 56.9376C32.3581 56.9369 31.9402 56.9146 31.5856 56.7748C30.8706 56.4928 30.4841 55.7222 30.5819 54.9627C30.6821 54.1855 31.3022 53.5451 32.0922 53.4334C32.3527 53.3965 32.6216 53.4124 32.8867 53.4124C39.9986 53.4116 47.1101 53.4158 54.222 53.4006C54.5977 53.3998 55.0248 53.3224 55.3416 53.1346C59.9636 50.393 64.924 48.675 70.2779 48.1189C70.4039 48.1058 70.5269 48.0628 70.7634 48.0074C69.5613 46.7203 69.046 45.261 69.302 43.5995C69.4805 42.4406 70.0393 41.4542 70.9328 40.6721C72.7244 39.1035 75.4368 39.0544 77.2946 40.5596C79.4635 42.3165 79.5952 44.5735 77.7842 47.8871C96.28 51.0596 107.16 61.8761 110.52 80.3586C111.296 80.4448 112.191 80.4268 113.017 80.6578C115.758 81.4242 117.083 84.0292 116.813 86.2184C116.459 89.0932 114.329 90.9912 111.577 90.9987C107.942 91.0086 104.306 91.0016 100.671 90.9999C100.463 90.9995 100.254 90.98 100.056 90.9701C99.2777 86.2164 96.5703 83.6921 92.6397 84.0243C96.7522 85.1232 98.9642 87.6778 98.6688 90.9883C98.3735 94.2992 95.92 96.906 92.8667 97.1926C89.3051 97.5269 85.9337 95.1683 85.4706 91.0185C77.7999 91.0185 70.1193 91.0185 62.4552 91.0185C61.4958 86.0826 58.4711 83.3433 54.7311 84.0326C58.0548 84.4302 60.2755 86.1402 60.9267 89.389C61.4851 92.1763 60.4768 94.4981 58.0482 96.184ZM103.248 66.9641C101.305 63.4958 98.7695 60.5357 95.6516 58.0697C92.4533 55.54 86.8156 52.7863 85.3894 53.0076C95.9167 58.6466 101.677 67.4348 102.488 79.453C103.93 79.453 105.372 79.453 106.847 79.453C106.61 75.011 105.42 70.9068 103.248 66.9641ZM89.7505 88.4627C88.7016 89.8077 88.591 91.1677 89.4278 92.4215C90.1705 93.5346 91.5627 94.0851 92.8327 93.7678C94.1678 93.4347 95.0932 92.3946 95.258 91.0422C95.4192 89.7187 94.792 88.4685 93.65 87.8368C92.4285 87.1612 91.0163 87.3605 89.7505 88.4627ZM55.7269 87.6732C54.3413 87.2126 53.0903 87.4168 52.1032 88.5332C51.2437 89.5049 51.044 90.6403 51.5419 91.8627C52.085 93.197 53.3964 93.9778 54.8425 93.8399C56.1635 93.7135 57.3643 92.6452 57.6282 91.3615C57.9414 89.8409 57.3059 88.5535 55.7269 87.6732Z" fill="white"/>
</svg>
