<svg width="886" height="160" viewBox="0 0 886 160" fill="none" xmlns="http://www.w3.org/2000/svg">
<path d="M10.5682 131V43.7273H62.8977V53.1023H21.1364V82.5909H58.9773V91.9659H21.1364V131H10.5682ZM101.42 132.364C95.5114 132.364 90.3267 130.957 85.8665 128.145C81.4347 125.332 77.9688 121.398 75.4688 116.341C72.9972 111.284 71.7614 105.375 71.7614 98.6136C71.7614 91.7955 72.9972 85.8437 75.4688 80.7585C77.9688 75.6733 81.4347 71.7244 85.8665 68.9119C90.3267 66.0994 95.5114 64.6932 101.42 64.6932C107.33 64.6932 112.5 66.0994 116.932 68.9119C121.392 71.7244 124.858 75.6733 127.33 80.7585C129.83 85.8437 131.08 91.7955 131.08 98.6136C131.08 105.375 129.83 111.284 127.33 116.341C124.858 121.398 121.392 125.332 116.932 128.145C112.5 130.957 107.33 132.364 101.42 132.364ZM101.42 123.33C105.909 123.33 109.602 122.179 112.5 119.878C115.398 117.577 117.543 114.551 118.935 110.801C120.327 107.051 121.023 102.989 121.023 98.6136C121.023 94.2386 120.327 90.1619 118.935 86.3835C117.543 82.6051 115.398 79.5511 112.5 77.2216C109.602 74.892 105.909 73.7273 101.42 73.7273C96.9318 73.7273 93.2386 74.892 90.3409 77.2216C87.4432 79.5511 85.2983 82.6051 83.9062 86.3835C82.5142 90.1619 81.8182 94.2386 81.8182 98.6136C81.8182 102.989 82.5142 107.051 83.9062 110.801C85.2983 114.551 87.4432 117.577 90.3409 119.878C93.2386 122.179 96.9318 123.33 101.42 123.33ZM173.022 132.364C167.113 132.364 161.928 130.957 157.468 128.145C153.036 125.332 149.57 121.398 147.07 116.341C144.599 111.284 143.363 105.375 143.363 98.6136C143.363 91.7955 144.599 85.8437 147.07 80.7585C149.57 75.6733 153.036 71.7244 157.468 68.9119C161.928 66.0994 167.113 64.6932 173.022 64.6932C178.931 64.6932 184.102 66.0994 188.533 68.9119C192.994 71.7244 196.46 75.6733 198.931 80.7585C201.431 85.8437 202.681 91.7955 202.681 98.6136C202.681 105.375 201.431 111.284 198.931 116.341C196.46 121.398 192.994 125.332 188.533 128.145C184.102 130.957 178.931 132.364 173.022 132.364ZM173.022 123.33C177.511 123.33 181.204 122.179 184.102 119.878C186.999 117.577 189.144 114.551 190.536 110.801C191.928 107.051 192.624 102.989 192.624 98.6136C192.624 94.2386 191.928 90.1619 190.536 86.3835C189.144 82.6051 186.999 79.5511 184.102 77.2216C181.204 74.892 177.511 73.7273 173.022 73.7273C168.533 73.7273 164.84 74.892 161.942 77.2216C159.045 79.5511 156.9 82.6051 155.508 86.3835C154.116 90.1619 153.42 94.2386 153.42 98.6136C153.42 102.989 154.116 107.051 155.508 110.801C156.9 114.551 159.045 117.577 161.942 119.878C164.84 122.179 168.533 123.33 173.022 123.33ZM242.749 132.364C237.294 132.364 232.479 130.986 228.303 128.23C224.126 125.446 220.859 121.526 218.501 116.469C216.143 111.384 214.964 105.375 214.964 98.4432C214.964 91.5682 216.143 85.6023 218.501 80.5455C220.859 75.4886 224.141 71.5824 228.345 68.8267C232.55 66.071 237.408 64.6932 242.919 64.6932C247.18 64.6932 250.547 65.4034 253.018 66.8239C255.518 68.2159 257.422 69.8068 258.729 71.5966C260.064 73.358 261.101 74.8068 261.839 75.9432H262.692V43.7273H272.749V131H263.033V120.943H261.839C261.101 122.136 260.05 123.642 258.686 125.46C257.322 127.25 255.376 128.855 252.848 130.276C250.32 131.668 246.953 132.364 242.749 132.364ZM244.112 123.33C248.146 123.33 251.555 122.278 254.339 120.176C257.124 118.045 259.24 115.105 260.689 111.355C262.138 107.577 262.862 103.216 262.862 98.2727C262.862 93.3864 262.152 89.1108 260.732 85.446C259.311 81.7528 257.209 78.8835 254.425 76.8381C251.641 74.7642 248.203 73.7273 244.112 73.7273C239.851 73.7273 236.3 74.821 233.459 77.0085C230.646 79.1676 228.53 82.108 227.109 85.8295C225.717 89.5227 225.021 93.6705 225.021 98.2727C225.021 102.932 225.732 107.165 227.152 110.972C228.601 114.75 230.732 117.761 233.544 120.006C236.385 122.222 239.908 123.33 244.112 123.33ZM369.183 75.3466H347.876C347.592 73.1591 347.01 71.1847 346.129 69.4233C345.249 67.6619 344.084 66.1562 342.635 64.9062C341.186 63.6563 339.467 62.7045 337.479 62.0511C335.518 61.3693 333.345 61.0284 330.959 61.0284C326.726 61.0284 323.075 62.0653 320.007 64.1392C316.967 66.2131 314.624 69.2102 312.976 73.1307C311.357 77.0511 310.547 81.7955 310.547 87.3636C310.547 93.1591 311.371 98.017 313.018 101.938C314.695 105.83 317.038 108.77 320.05 110.759C323.089 112.719 326.683 113.699 330.831 113.699C333.161 113.699 335.277 113.401 337.18 112.804C339.112 112.207 340.803 111.341 342.251 110.205C343.729 109.04 344.936 107.634 345.874 105.986C346.839 104.31 347.507 102.42 347.876 100.318L369.183 100.446C368.814 104.31 367.692 108.116 365.817 111.866C363.97 115.616 361.428 119.04 358.189 122.136C354.95 125.205 351.001 127.648 346.342 129.466C341.712 131.284 336.399 132.193 330.405 132.193C322.507 132.193 315.433 130.46 309.183 126.994C302.962 123.5 298.047 118.415 294.439 111.739C290.831 105.062 289.027 96.9375 289.027 87.3636C289.027 77.7614 290.859 69.6222 294.524 62.946C298.189 56.2699 303.146 51.1989 309.396 47.733C315.646 44.267 322.649 42.5341 330.405 42.5341C335.689 42.5341 340.575 43.2727 345.064 44.75C349.553 46.1989 353.501 48.3295 356.911 51.142C360.32 53.9261 363.089 57.3494 365.22 61.4119C367.351 65.4744 368.672 70.1193 369.183 75.3466ZM381.254 131V65.5455H401.495V77.4773H402.177C403.37 73.1591 405.316 69.9489 408.015 67.8466C410.714 65.7159 413.853 64.6506 417.433 64.6506C418.398 64.6506 419.393 64.7216 420.415 64.8636C421.438 64.9773 422.39 65.1619 423.271 65.4176V83.5284C422.276 83.1875 420.969 82.9176 419.35 82.7188C417.759 82.5199 416.339 82.4205 415.089 82.4205C412.617 82.4205 410.387 82.9744 408.398 84.0824C406.438 85.1619 404.89 86.6818 403.754 88.642C402.646 90.5739 402.092 92.8466 402.092 95.4602V131H381.254ZM458.96 132.236C452.113 132.236 446.204 130.886 441.232 128.188C436.289 125.46 432.482 121.582 429.812 116.554C427.17 111.497 425.849 105.489 425.849 98.5284C425.849 91.767 427.184 85.858 429.854 80.8011C432.525 75.7159 436.289 71.767 441.147 68.9545C446.005 66.1136 451.729 64.6932 458.32 64.6932C462.979 64.6932 467.241 65.4176 471.104 66.8665C474.968 68.3153 478.306 70.4602 481.119 73.3011C483.931 76.142 486.119 79.6506 487.681 83.8267C489.244 87.9744 490.025 92.733 490.025 98.1023V103.301H433.136V91.1989H470.636C470.607 88.983 470.082 87.0085 469.059 85.2756C468.036 83.5426 466.63 82.1932 464.84 81.2273C463.079 80.233 461.048 79.7358 458.746 79.7358C456.417 79.7358 454.329 80.2614 452.482 81.3125C450.636 82.3352 449.173 83.7415 448.093 85.5312C447.013 87.2926 446.445 89.2955 446.388 91.5398V103.855C446.388 106.526 446.914 108.869 447.965 110.886C449.016 112.875 450.508 114.423 452.44 115.531C454.371 116.639 456.673 117.193 459.343 117.193C461.19 117.193 462.866 116.937 464.371 116.426C465.877 115.915 467.17 115.162 468.249 114.168C469.329 113.173 470.138 111.952 470.678 110.503L489.812 111.057C489.016 115.347 487.269 119.082 484.57 122.264C481.9 125.418 478.391 127.875 474.045 129.636C469.698 131.369 464.67 132.236 458.96 132.236ZM500.668 131V65.5455H521.506V131H500.668ZM511.108 57.9176C508.182 57.9176 505.668 56.9517 503.565 55.0199C501.463 53.0597 500.412 50.7017 500.412 47.946C500.412 45.2187 501.463 42.8892 503.565 40.9574C505.668 38.9972 508.182 38.017 511.108 38.017C514.063 38.017 516.577 38.9972 518.651 40.9574C520.753 42.8892 521.804 45.2187 521.804 47.946C521.804 50.7017 520.753 53.0597 518.651 55.0199C516.577 56.9517 514.063 57.9176 511.108 57.9176ZM555.607 43.7273V131H534.769V43.7273H555.607ZM587.322 132.108C583.146 132.108 579.439 131.412 576.2 130.02C572.99 128.599 570.447 126.469 568.572 123.628C566.726 120.759 565.803 117.165 565.803 112.847C565.803 109.21 566.442 106.142 567.72 103.642C568.999 101.142 570.76 99.1108 573.004 97.5483C575.249 95.9858 577.834 94.8068 580.76 94.0114C583.686 93.1875 586.811 92.6335 590.135 92.3494C593.857 92.0085 596.854 91.6534 599.126 91.2841C601.399 90.8864 603.047 90.3324 604.07 89.6222C605.121 88.8835 605.646 87.8466 605.646 86.5114V86.2983C605.646 84.1108 604.893 82.4205 603.388 81.2273C601.882 80.0341 599.851 79.4375 597.294 79.4375C594.538 79.4375 592.322 80.0341 590.646 81.2273C588.97 82.4205 587.905 84.0682 587.45 86.1705L568.232 85.4886C568.8 81.5114 570.263 77.9602 572.621 74.8352C575.007 71.6818 578.274 69.2102 582.422 67.4205C586.598 65.6023 591.612 64.6932 597.464 64.6932C601.641 64.6932 605.49 65.1903 609.013 66.1847C612.536 67.1506 615.604 68.571 618.217 70.446C620.831 72.2926 622.848 74.5653 624.268 77.2642C625.717 79.9631 626.442 83.0455 626.442 86.5114V131H606.839V121.881H606.328C605.163 124.097 603.672 125.972 601.854 127.506C600.064 129.04 597.947 130.19 595.504 130.957C593.089 131.724 590.362 132.108 587.322 132.108ZM593.757 118.472C596.001 118.472 598.018 118.017 599.808 117.108C601.626 116.199 603.075 114.949 604.155 113.358C605.234 111.739 605.774 109.864 605.774 107.733V101.511C605.178 101.824 604.453 102.108 603.601 102.364C602.777 102.619 601.868 102.861 600.874 103.088C599.879 103.315 598.857 103.514 597.805 103.685C596.754 103.855 595.746 104.011 594.78 104.153C592.82 104.466 591.143 104.949 589.751 105.602C588.388 106.256 587.337 107.108 586.598 108.159C585.888 109.182 585.533 110.403 585.533 111.824C585.533 113.983 586.3 115.631 587.834 116.767C589.396 117.903 591.371 118.472 593.757 118.472Z" fill="black"/>
<path d="M744.052 137.546C734.63 143.471 721.147 138.507 719.483 125.034C718.818 125.034 718.128 125.034 717.437 125.034C709.237 125.034 701.037 125.045 692.838 125.031C685.737 125.018 680.093 119.474 680.018 112.47C679.942 105.365 685.525 99.661 692.688 99.5325C693.636 99.5155 694.584 99.5301 695.488 99.5301C696.457 94.5292 697.389 89.7214 698.354 84.7411C697.906 84.703 697.376 84.6203 696.846 84.6189C692.746 84.6078 688.646 84.6264 684.546 84.6071C681.884 84.5945 679.972 82.9288 679.828 80.5545C679.678 78.0968 681.461 76.1195 684.268 76.0486C689.389 75.9193 694.517 75.9328 699.64 76.0083C701.078 76.0294 701.757 75.5682 702.341 74.2426C703.851 70.8118 705.574 67.4745 707.308 63.9017C706.507 63.9017 705.831 63.9017 705.154 63.9017C693.303 63.9022 681.451 63.9077 669.6 63.8995C666.668 63.8975 664.806 62.3835 664.649 59.9321C664.479 57.27 666.295 55.395 669.142 55.3897C678.431 55.3724 687.72 55.3837 697.009 55.3838C701.941 55.3838 706.875 55.4337 711.806 55.3322C712.609 55.3156 713.601 54.818 714.162 54.22C717.613 50.5381 720.965 46.7635 724.532 42.8181C723.861 42.8181 723.212 42.8181 722.564 42.8181C709.367 42.8176 696.17 42.8246 682.974 42.8005C682.033 42.7988 681.024 42.745 680.168 42.4074C678.442 41.7266 677.509 39.8663 677.745 38.0329C677.987 36.1567 679.484 34.6107 681.391 34.341C682.02 34.2519 682.669 34.2903 683.309 34.2903C700.478 34.2883 717.646 34.2985 734.815 34.2618C735.722 34.2599 736.753 34.073 737.518 33.6196C748.676 27.001 760.651 22.8535 773.576 21.5111C773.88 21.4794 774.177 21.3756 774.748 21.242C771.846 18.1347 770.602 14.6118 771.22 10.6007C771.651 7.80301 773 5.42168 775.157 3.53371C779.482 -0.253095 786.03 -0.371646 790.515 3.26214C795.751 7.50351 796.069 12.9522 791.697 20.9516C836.348 28.6103 862.613 54.7227 870.726 99.3417C872.599 99.5498 874.76 99.5063 876.754 100.064C883.371 101.914 886.569 108.203 885.917 113.488C885.062 120.428 879.92 125.01 873.278 125.028C864.502 125.052 855.725 125.035 846.949 125.031C846.446 125.03 845.943 124.983 845.463 124.959C843.585 113.483 837.049 107.389 827.56 108.191C837.488 110.844 842.828 117.011 842.115 125.003C841.402 132.996 835.479 139.289 828.108 139.981C819.51 140.788 811.371 135.094 810.253 125.076C791.735 125.076 773.193 125.076 754.691 125.076C752.375 113.16 745.073 106.547 736.044 108.211C744.068 109.171 749.429 113.299 751.001 121.142C752.349 127.871 749.915 133.476 744.052 137.546ZM853.17 67.0057C848.48 58.6329 842.358 51.4867 834.831 45.5336C827.11 39.4266 813.5 32.7787 810.057 33.313C835.471 46.9262 849.377 68.1419 851.335 97.1554C854.817 97.1554 858.297 97.1554 861.858 97.1554C861.287 86.4318 858.414 76.5239 853.17 67.0057ZM820.585 118.906C818.053 122.153 817.786 125.436 819.806 128.463C821.599 131.15 824.96 132.479 828.026 131.713C831.249 130.909 833.483 128.398 833.881 125.133C834.27 121.938 832.756 118.92 829.999 117.395C827.05 115.764 823.641 116.245 820.585 118.906ZM738.448 117C735.103 115.888 732.083 116.381 729.7 119.076C727.625 121.422 727.143 124.163 728.345 127.114C729.656 130.335 732.822 132.22 736.313 131.887C739.502 131.582 742.401 129.003 743.038 125.904C743.794 122.233 742.26 119.125 738.448 117Z" fill="black"/>
</svg>
