<svg width="476" height="98" viewBox="0 0 476 98" fill="none" xmlns="http://www.w3.org/2000/svg">
<path d="M97.3401 21.8894H109.9V43.8094H133.02V21.8894H145.58V79.0094H133.02V54.3694H109.9V79.0094H97.3401V21.8894ZM184.877 53.8894C184.344 51.0094 183.384 48.8227 181.997 47.3294C180.664 45.8361 178.61 45.0894 175.837 45.0894C174.024 45.0894 172.504 45.4094 171.277 46.0494C170.104 46.6361 169.144 47.3827 168.397 48.2894C167.704 49.1961 167.197 50.1561 166.877 51.1694C166.61 52.1827 166.45 53.0894 166.397 53.8894H184.877ZM166.397 61.0894C166.557 64.7694 167.49 67.4361 169.197 69.0894C170.904 70.7427 173.357 71.5694 176.557 71.5694C178.85 71.5694 180.824 71.0094 182.477 69.8894C184.13 68.7161 185.144 67.4894 185.517 66.2094H195.517C193.917 71.1694 191.464 74.7161 188.157 76.8494C184.85 78.9827 180.85 80.0494 176.157 80.0494C172.904 80.0494 169.97 79.5427 167.357 78.5294C164.744 77.4627 162.53 75.9694 160.717 74.0494C158.904 72.1294 157.49 69.8361 156.477 67.1694C155.517 64.5027 155.037 61.5694 155.037 58.3694C155.037 55.2761 155.544 52.3961 156.557 49.7294C157.57 47.0627 159.01 44.7694 160.877 42.8494C162.744 40.8761 164.957 39.3294 167.517 38.2094C170.13 37.0894 173.01 36.5294 176.157 36.5294C179.677 36.5294 182.744 37.2227 185.357 38.6094C187.97 39.9427 190.104 41.7561 191.757 44.0494C193.464 46.3427 194.69 48.9561 195.437 51.8894C196.184 54.8227 196.45 57.8894 196.237 61.0894H166.397ZM204.094 50.3694C204.254 47.7027 204.921 45.4894 206.094 43.7294C207.268 41.9694 208.761 40.5561 210.574 39.4894C212.388 38.4227 214.414 37.6761 216.654 37.2494C218.948 36.7694 221.241 36.5294 223.534 36.5294C225.614 36.5294 227.721 36.6894 229.854 37.0094C231.988 37.2761 233.934 37.8361 235.694 38.6894C237.454 39.5427 238.894 40.7427 240.014 42.2894C241.134 43.7827 241.694 45.7827 241.694 48.2894V69.8094C241.694 71.6761 241.801 73.4627 242.014 75.1694C242.228 76.8761 242.601 78.1561 243.134 79.0094H231.614C231.401 78.3694 231.214 77.7294 231.054 77.0894C230.948 76.3961 230.868 75.7027 230.814 75.0094C229.001 76.8761 226.868 78.1827 224.414 78.9294C221.961 79.6761 219.454 80.0494 216.894 80.0494C214.921 80.0494 213.081 79.8094 211.374 79.3294C209.668 78.8494 208.174 78.1027 206.894 77.0894C205.614 76.0761 204.601 74.7961 203.854 73.2494C203.161 71.7027 202.814 69.8627 202.814 67.7294C202.814 65.3827 203.214 63.4627 204.014 61.9694C204.868 60.4227 205.934 59.1961 207.214 58.2894C208.548 57.3827 210.041 56.7161 211.694 56.2894C213.401 55.8094 215.108 55.4361 216.814 55.1694C218.521 54.9027 220.201 54.6894 221.854 54.5294C223.508 54.3694 224.974 54.1294 226.254 53.8094C227.534 53.4894 228.548 53.0361 229.294 52.4494C230.041 51.8094 230.388 50.9027 230.334 49.7294C230.334 48.5027 230.121 47.5427 229.694 46.8494C229.321 46.1027 228.788 45.5427 228.094 45.1694C227.454 44.7427 226.681 44.4761 225.774 44.3694C224.921 44.2094 223.988 44.1294 222.974 44.1294C220.734 44.1294 218.974 44.6094 217.694 45.5694C216.414 46.5294 215.668 48.1294 215.454 50.3694H204.094ZM230.334 58.7694C229.854 59.1961 229.241 59.5427 228.494 59.8094C227.801 60.0227 227.028 60.2094 226.174 60.3694C225.374 60.5294 224.521 60.6627 223.614 60.7694C222.708 60.8761 221.801 61.0094 220.894 61.1694C220.041 61.3294 219.188 61.5427 218.334 61.8094C217.534 62.0761 216.814 62.4494 216.174 62.9294C215.588 63.3561 215.108 63.9161 214.734 64.6094C214.361 65.3027 214.174 66.1827 214.174 67.2494C214.174 68.2627 214.361 69.1161 214.734 69.8094C215.108 70.5027 215.614 71.0627 216.254 71.4894C216.894 71.8627 217.641 72.1294 218.494 72.2894C219.348 72.4494 220.228 72.5294 221.134 72.5294C223.374 72.5294 225.108 72.1561 226.334 71.4094C227.561 70.6627 228.468 69.7827 229.054 68.7694C229.641 67.7027 229.988 66.6361 230.094 65.5694C230.254 64.5027 230.334 63.6494 230.334 63.0094V58.7694ZM252.112 37.6494H262.912V45.3294H263.072C263.605 44.0494 264.325 42.8761 265.232 41.8094C266.139 40.6894 267.179 39.7561 268.352 39.0094C269.525 38.2094 270.779 37.5961 272.112 37.1694C273.445 36.7427 274.832 36.5294 276.272 36.5294C277.019 36.5294 277.845 36.6627 278.752 36.9294V47.4894C278.219 47.3827 277.579 47.3027 276.832 47.2494C276.085 47.1427 275.365 47.0894 274.672 47.0894C272.592 47.0894 270.832 47.4361 269.392 48.1294C267.952 48.8227 266.779 49.7827 265.872 51.0094C265.019 52.1827 264.405 53.5694 264.032 55.1694C263.659 56.7694 263.472 58.5027 263.472 60.3694V79.0094H252.112V37.6494ZM299.206 37.6494H307.526V45.2494H299.206V65.7294C299.206 67.6494 299.526 68.9294 300.166 69.5694C300.806 70.2094 302.086 70.5294 304.006 70.5294C304.646 70.5294 305.259 70.5027 305.846 70.4494C306.432 70.3961 306.992 70.3161 307.526 70.2094V79.0094C306.566 79.1694 305.499 79.2761 304.326 79.3294C303.152 79.3827 302.006 79.4094 300.886 79.4094C299.126 79.4094 297.446 79.2761 295.846 79.0094C294.299 78.7961 292.912 78.3427 291.686 77.6494C290.512 76.9561 289.579 75.9694 288.886 74.6894C288.192 73.4094 287.846 71.7294 287.846 69.6494V45.2494H280.966V37.6494H287.846V25.2494H299.206V37.6494ZM321.411 46.9294H340.131C342.317 46.9294 344.211 46.6894 345.811 46.2094C347.411 45.6761 348.744 44.9827 349.811 44.1294C350.877 43.2227 351.677 42.1827 352.211 41.0094C352.744 39.8361 353.011 38.5827 353.011 37.2494C353.011 30.1027 348.717 26.5294 340.131 26.5294H321.411V46.9294ZM315.971 21.8894H340.131C342.531 21.8894 344.824 22.1294 347.011 22.6094C349.251 23.0361 351.197 23.8094 352.851 24.9294C354.557 25.9961 355.917 27.4361 356.931 29.2494C357.944 31.0094 358.451 33.2227 358.451 35.8894C358.451 37.3827 358.211 38.8494 357.731 40.2894C357.251 41.6761 356.557 42.9561 355.651 44.1294C354.797 45.2494 353.757 46.2094 352.531 47.0094C351.357 47.8094 350.024 48.3694 348.531 48.6894V48.8494C352.211 49.3294 355.144 50.8494 357.331 53.4094C359.517 55.9161 360.611 59.0361 360.611 62.7694C360.611 63.6761 360.531 64.7161 360.371 65.8894C360.211 67.0094 359.891 68.1827 359.411 69.4094C358.931 70.5827 358.237 71.7561 357.331 72.9294C356.424 74.1027 355.197 75.1427 353.651 76.0494C352.157 76.9027 350.291 77.6227 348.051 78.2094C345.864 78.7427 343.224 79.0094 340.131 79.0094H315.971V21.8894ZM321.411 74.3694H340.131C342.157 74.3694 344.077 74.2094 345.891 73.8894C347.704 73.5161 349.304 72.8761 350.691 71.9694C352.077 71.0627 353.171 69.8627 353.971 68.3694C354.771 66.8227 355.171 64.9027 355.171 62.6094C355.171 58.9294 353.864 56.1827 351.251 54.3694C348.691 52.5027 344.984 51.5694 340.131 51.5694H321.411V74.3694ZM399.65 55.4894C399.597 53.5694 399.25 51.7294 398.61 49.9694C398.023 48.2094 397.17 46.6627 396.05 45.3294C394.93 43.9427 393.57 42.8494 391.97 42.0494C390.37 41.1961 388.557 40.7694 386.53 40.7694C384.45 40.7694 382.61 41.1961 381.01 42.0494C379.41 42.8494 378.05 43.9427 376.93 45.3294C375.81 46.6627 374.903 48.2361 374.21 50.0494C373.57 51.8094 373.143 53.6227 372.93 55.4894H399.65ZM372.93 59.7294C372.93 61.5427 373.17 63.4361 373.65 65.4094C374.183 67.3294 375.01 69.0627 376.13 70.6094C377.25 72.1561 378.663 73.4361 380.37 74.4494C382.077 75.4627 384.13 75.9694 386.53 75.9694C390.21 75.9694 393.09 75.0094 395.17 73.0894C397.25 71.1694 398.69 68.6094 399.49 65.4094H404.53C403.463 70.1027 401.49 73.7294 398.61 76.2894C395.783 78.8494 391.757 80.1294 386.53 80.1294C383.277 80.1294 380.45 79.5694 378.05 78.4494C375.703 77.2761 373.783 75.7027 372.29 73.7294C370.797 71.7027 369.677 69.3827 368.93 66.7694C368.237 64.1027 367.89 61.3027 367.89 58.3694C367.89 55.6494 368.237 52.9827 368.93 50.3694C369.677 47.7561 370.797 45.4361 372.29 43.4094C373.783 41.3294 375.703 39.6761 378.05 38.4494C380.45 37.1694 383.277 36.5294 386.53 36.5294C389.837 36.5294 392.663 37.1961 395.01 38.5294C397.357 39.8627 399.25 41.6227 400.69 43.8094C402.183 45.9427 403.25 48.4227 403.89 51.2494C404.53 54.0227 404.797 56.8494 404.69 59.7294H372.93ZM412.574 50.3694C412.734 47.9694 413.241 45.8894 414.094 44.1294C414.948 42.3694 416.094 40.9294 417.534 39.8094C419.028 38.6894 420.761 37.8627 422.734 37.3294C424.708 36.7961 426.894 36.5294 429.294 36.5294C431.108 36.5294 432.921 36.7161 434.734 37.0894C436.548 37.4094 438.174 38.0494 439.614 39.0094C441.054 39.9694 442.228 41.3294 443.134 43.0894C444.041 44.7961 444.494 47.0361 444.494 49.8094V71.7294C444.494 73.7561 445.481 74.7694 447.454 74.7694C448.041 74.7694 448.574 74.6627 449.054 74.4494V78.6894C448.468 78.7961 447.934 78.8761 447.454 78.9294C447.028 78.9827 446.468 79.0094 445.774 79.0094C444.494 79.0094 443.454 78.8494 442.654 78.5294C441.908 78.1561 441.321 77.6494 440.894 77.0094C440.468 76.3694 440.174 75.6227 440.014 74.7694C439.908 73.8627 439.854 72.8761 439.854 71.8094H439.694C438.788 73.1427 437.854 74.3427 436.894 75.4094C435.988 76.4227 434.948 77.2761 433.774 77.9694C432.654 78.6627 431.348 79.1961 429.854 79.5694C428.414 79.9427 426.681 80.1294 424.654 80.1294C422.734 80.1294 420.921 79.8894 419.214 79.4094C417.561 78.9827 416.094 78.2894 414.814 77.3294C413.588 76.3161 412.601 75.0627 411.854 73.5694C411.161 72.0227 410.814 70.2094 410.814 68.1294C410.814 65.2494 411.454 63.0094 412.734 61.4094C414.014 59.7561 415.694 58.5027 417.774 57.6494C419.908 56.7961 422.281 56.2094 424.894 55.8894C427.561 55.5161 430.254 55.1694 432.974 54.8494C434.041 54.7427 434.974 54.6094 435.774 54.4494C436.574 54.2894 437.241 54.0227 437.774 53.6494C438.308 53.2227 438.708 52.6627 438.974 51.9694C439.294 51.2761 439.454 50.3694 439.454 49.2494C439.454 47.5427 439.161 46.1561 438.574 45.0894C438.041 43.9694 437.268 43.0894 436.254 42.4494C435.294 41.8094 434.148 41.3827 432.814 41.1694C431.534 40.9027 430.148 40.7694 428.654 40.7694C425.454 40.7694 422.841 41.5427 420.814 43.0894C418.788 44.5827 417.721 47.0094 417.614 50.3694H412.574ZM439.454 56.4494H439.294C438.974 57.0361 438.361 57.4627 437.454 57.7294C436.548 57.9961 435.748 58.1827 435.054 58.2894C432.921 58.6627 430.708 59.0094 428.414 59.3294C426.174 59.5961 424.121 60.0227 422.254 60.6094C420.388 61.1961 418.841 62.0494 417.614 63.1694C416.441 64.2361 415.854 65.7827 415.854 67.8094C415.854 69.0894 416.094 70.2361 416.574 71.2494C417.108 72.2094 417.801 73.0627 418.654 73.8094C419.508 74.5027 420.494 75.0361 421.614 75.4094C422.734 75.7827 423.881 75.9694 425.054 75.9694C426.974 75.9694 428.814 75.6761 430.574 75.0894C432.334 74.5027 433.854 73.6494 435.134 72.5294C436.468 71.4094 437.508 70.0494 438.254 68.4494C439.054 66.8494 439.454 65.0361 439.454 63.0094V56.4494ZM464.139 37.7294H472.539V41.9694H464.139V69.8094C464.139 71.4627 464.352 72.7694 464.779 73.7294C465.259 74.6361 466.405 75.1427 468.219 75.2494C469.659 75.2494 471.099 75.1694 472.539 75.0094V79.2494C471.792 79.2494 471.045 79.2761 470.299 79.3294C469.552 79.3827 468.805 79.4094 468.059 79.4094C464.699 79.4094 462.352 78.7694 461.019 77.4894C459.685 76.1561 459.045 73.7294 459.099 70.2094V41.9694H451.899V37.7294H459.099V25.3294H464.139V37.7294Z" fill="black"/>
<path d="M0.505859 56.1027V88.0644C9.03709 73.3788 18.4045 70.0247 24.602 70.4878C30.7995 70.9509 63.7008 81.1976 77.769 73.2745V53.8493C73.9999 55.3434 68.2849 57.4216 57.332 56.7096C37.2729 55.4057 22.6645 43.4297 0.505859 56.1027Z" fill="url(#paint0_linear_3721_274)"/>
<path d="M0.527588 24.1931V46.893C27.9095 34.6262 50.7237 58.744 77.9541 47.0245V24.633C53.2055 36.0182 22.3009 11.4978 0.527588 24.1931Z" fill="url(#paint1_linear_3721_274)"/>
<defs>
<linearGradient id="paint0_linear_3721_274" x1="-6.74653" y1="75.3268" x2="79.7495" y2="67.4139" gradientUnits="userSpaceOnUse">
<stop stop-color="#FF631C"/>
<stop offset="1" stop-color="#FF905E"/>
</linearGradient>
<linearGradient id="paint1_linear_3721_274" x1="0.527588" y1="24.3744" x2="99.4808" y2="52.7345" gradientUnits="userSpaceOnUse">
<stop stop-color="#FF5E15"/>
<stop offset="1" stop-color="#FF9E72"/>
</linearGradient>
</defs>
</svg>
